# xmcd CD database file
#
# Track frame offsets:
#	150
#	13782
#	29127
#	43300
#	52970
#	63075
#	80005
#	90522
#	99002
#	112072
#	129050
#	145495
#	159332
#	175012
#	188697
#	204947
#	221792
#	239242
#	259777
#	278657
#
# Disc length: 3866 seconds
#
# Revision: 0
# Processed by: cddbd v1.5.1PL0 Copyright (c) Steve Scherf et al.
# Submitted via: CDex 1.51
#
DISCID=180f1814
DTITLE=Various Artist - 30th Anniversary Dora-Can? Disc1
DYEAR=2000
DGENRE=Anime
TTITLE0=山野さと子／大山のぶ代 - ドラえもんのうた
TTITLE1=堀江美都子 - 青空っていいな
TTITLE2=かおりくみこ - しずかちゃんのうた
TTITLE3=たてかべ和也 - おれはジャイアンさまだ!
TTITLE4=肝付兼太 - スネ夫のうた
TTITLE5=小原乃梨子 - のんきなのび太くん
TTITLE6=大山のぶ代 - まる顔のうた
TTITLE7=堀江美都子 - ぼくたち地球人
TTITLE8=山野さと子 - ハロー!ドラミちゃん
TTITLE9=KUKO - 友達なのに
TTITLE10=大山のぶ代 - ドラえもんじゃあニィ
TTITLE11=大山のぶ代、ヤング・フレッシュ - ポケットの中に
TTITLE12=こおろぎ'73 - うきうきタイムトラベル
TTITLE13=大杉久美子 - わたしが不思議
TTITLE14=岩渕まこと - だからみんなで
TTITLE15=堀江美都子、こおろぎ'73 - 君がいるから
TTITLE16=岩渕まこと - 海はぼくらと
TTITLE17=中西保志、沢田知可子 - 幸せのドア
TTITLE18=タケカワユキヒデ&T'sCOMPANY - ハグしよう
TTITLE19=大山のぶ代、こおろぎ'73 - ぼくドラえもん2112
EXTD=YEAR: 2000
EXTT0=
EXTT1=
EXTT2=
EXTT3=
EXTT4=
EXTT5=
EXTT6=
EXTT7=
EXTT8=
EXTT9=
EXTT10=
EXTT11=
EXTT12=
EXTT13=
EXTT14=
EXTT15=
EXTT16=
EXTT17=
EXTT18=
EXTT19=
PLAYORDER=
